<svg width="64" height="64" viewBox="0 0 64 64" fill="none" xmlns="http://www.w3.org/2000/svg">
<path fill-rule="evenodd" clip-rule="evenodd" d="M35.7612 10.5024C39.0315 7.232 43.7212 6.24993 47.8235 7.56457L48.7758 7.86975L48.1655 9.77434L47.2132 9.46917C43.8013 8.37577 39.8991 9.19286 37.1754 11.9166C34.4517 14.6403 33.6346 18.5425 34.728 21.9544L34.9141 22.5353L22.5353 34.9141L21.9544 34.728C18.5425 33.6346 14.6403 34.4517 11.9166 37.1754C9.19286 39.8991 8.37577 43.8013 9.46916 47.2132L9.77434 48.1655L7.86975 48.7758L7.56457 47.8235C6.24993 43.7212 7.232 39.0315 10.5024 35.7612C13.6159 32.6476 18.016 31.6082 21.9709 32.6501L32.6501 21.9709C31.6082 18.016 32.6476 13.6159 35.7612 10.5024ZM55.13 14.2239L55.4352 15.1762C56.7498 19.2785 55.7678 23.9682 52.4974 27.2386C49.3838 30.3522 44.9837 31.3916 41.0289 30.3496L30.3496 41.0289C31.3916 44.9837 30.3522 49.3838 27.2386 52.4974C23.9682 55.7678 19.2785 56.7498 15.1762 55.4352L14.2239 55.13L14.8343 53.2254L15.7866 53.5306C19.1985 54.624 23.1006 53.8069 25.8244 51.0832C28.5481 48.3594 29.3652 44.4573 28.2718 41.0454L28.0856 40.4645L40.4645 28.0856L41.0454 28.2718C44.4573 29.3652 48.3594 28.5481 51.0832 25.8244C53.8069 23.1006 54.624 19.1985 53.5306 15.7866L53.2254 14.8343L55.13 14.2239Z" fill="white"/>
<path fill-rule="evenodd" clip-rule="evenodd" d="M35.7612 10.5024C39.0315 7.232 43.7212 6.24993 47.8235 7.56457L48.7758 7.86975L48.1655 9.77434L47.2132 9.46917C43.8013 8.37577 39.8991 9.19286 37.1754 11.9166C34.4517 14.6403 33.6346 18.5425 34.728 21.9544L34.9141 22.5353L22.5353 34.9141L21.9544 34.728C18.5425 33.6346 14.6403 34.4517 11.9166 37.1754C9.19286 39.8991 8.37577 43.8013 9.46916 47.2132L9.77434 48.1655L7.86975 48.7758L7.56457 47.8235C6.24993 43.7212 7.232 39.0315 10.5024 35.7612C13.6159 32.6476 18.016 31.6082 21.9709 32.6501L32.6501 21.9709C31.6082 18.016 32.6476 13.6159 35.7612 10.5024ZM55.13 14.2239L55.4352 15.1762C56.7498 19.2785 55.7678 23.9682 52.4974 27.2386C49.3838 30.3522 44.9837 31.3916 41.0289 30.3496L30.3496 41.0289C31.3916 44.9837 30.3522 49.3838 27.2386 52.4974C23.9682 55.7678 19.2785 56.7498 15.1762 55.4352L14.2239 55.13L14.8343 53.2254L15.7866 53.5306C19.1985 54.624 23.1006 53.8069 25.8244 51.0832C28.5481 48.3594 29.3652 44.4573 28.2718 41.0454L28.0856 40.4645L40.4645 28.0856L41.0454 28.2718C44.4573 29.3652 48.3594 28.5481 51.0832 25.8244C53.8069 23.1006 54.624 19.1985 53.5306 15.7866L53.2254 14.8343L55.13 14.2239Z" fill="url(#paint0_linear_2608_57235)"/>
<path fill-rule="evenodd" clip-rule="evenodd" d="M49.9621 8.94961L43.5981 15.3136C42.4265 16.4851 42.4265 18.3846 43.5981 19.5562C44.7697 20.7278 46.6692 20.7278 47.8407 19.5562L54.2047 13.1923L55.6189 14.6065L49.255 20.9704C47.3023 22.9231 44.1365 22.9231 42.1839 20.9704C40.2313 19.0178 40.2313 15.852 42.1839 13.8994L48.5479 7.5354L49.9621 8.94961Z" fill="white"/>
<path fill-rule="evenodd" clip-rule="evenodd" d="M8.94937 49.9618L15.3133 43.5979C16.4849 42.4263 18.3844 42.4263 19.556 43.5979C20.7275 44.7694 20.7275 46.6689 19.556 47.8405L13.192 54.2045L14.6062 55.6187L20.9702 49.2547C22.9228 47.3021 22.9228 44.1363 20.9702 42.1836C19.0176 40.231 15.8517 40.231 13.8991 42.1836L7.53516 48.5476L8.94937 49.9618Z" fill="white"/>
<defs>
<linearGradient id="paint0_linear_2608_57235" x1="31.4999" y1="7" x2="31.4999" y2="55.9998" gradientUnits="userSpaceOnUse">
<stop stop-color="white"/>
<stop offset="1" stop-color="white" stop-opacity="0"/>
</linearGradient>
</defs>
</svg>
