<svg width="64" height="64" viewBox="0 0 64 64" fill="none" xmlns="http://www.w3.org/2000/svg">
<path fill-rule="evenodd" clip-rule="evenodd" d="M15 12C15 9.23857 17.2386 7 20 7H44C46.7614 7 49 9.23858 49 12V54C49 56.7614 46.7614 59 44 59H20C17.2386 59 15 56.7614 15 54V12ZM20 9C18.3431 9 17 10.3431 17 12V54C17 55.6569 18.3431 57 20 57H44C45.6569 57 47 55.6569 47 54V12C47 10.3431 45.6569 9 44 9H20Z" fill="white"/>
<path fill-rule="evenodd" clip-rule="evenodd" d="M15 12C15 9.23857 17.2386 7 20 7H44C46.7614 7 49 9.23858 49 12V54C49 56.7614 46.7614 59 44 59H20C17.2386 59 15 56.7614 15 54V12ZM20 9C18.3431 9 17 10.3431 17 12V54C17 55.6569 18.3431 57 20 57H44C45.6569 57 47 55.6569 47 54V12C47 10.3431 45.6569 9 44 9H20Z" fill="url(#paint0_linear_2608_58324)"/>
<path fill-rule="evenodd" clip-rule="evenodd" d="M36 54H28V52H36V54Z" fill="white"/>
<path fill-rule="evenodd" clip-rule="evenodd" d="M36 13H28V11H36V13Z" fill="white"/>
<path fill-rule="evenodd" clip-rule="evenodd" d="M36 13H28V11H36V13Z" fill="url(#paint1_linear_2608_58324)"/>
<path fill-rule="evenodd" clip-rule="evenodd" d="M49 50H17V48H49V50Z" fill="white"/>
<path fill-rule="evenodd" clip-rule="evenodd" d="M49 50H17V48H49V50Z" fill="url(#paint2_linear_2608_58324)"/>
<defs>
<linearGradient id="paint0_linear_2608_58324" x1="32" y1="7" x2="32" y2="59" gradientUnits="userSpaceOnUse">
<stop stop-color="white"/>
<stop offset="1" stop-color="white" stop-opacity="0"/>
</linearGradient>
<linearGradient id="paint1_linear_2608_58324" x1="32" y1="11" x2="32" y2="13" gradientUnits="userSpaceOnUse">
<stop stop-color="white"/>
<stop offset="1" stop-color="white" stop-opacity="0"/>
</linearGradient>
<linearGradient id="paint2_linear_2608_58324" x1="33" y1="48" x2="33" y2="50" gradientUnits="userSpaceOnUse">
<stop stop-color="white"/>
<stop offset="1" stop-color="white" stop-opacity="0"/>
</linearGradient>
</defs>
</svg>
