<svg width="158" height="158" viewBox="0 0 158 158" fill="none" xmlns="http://www.w3.org/2000/svg">
<path fill-rule="evenodd" clip-rule="evenodd" d="M46.0834 26.3333H26.3334V46.0833H46.0834V26.3333ZM21.3959 21.3958V51.0208H51.0209V21.3958H21.3959Z" fill="white"/>
<path fill-rule="evenodd" clip-rule="evenodd" d="M90.5208 26.3333H70.7708V46.0833H90.5208V26.3333ZM65.8333 21.3958V51.0208H95.4583V21.3958H65.8333Z" fill="white"/>
<path fill-rule="evenodd" clip-rule="evenodd" d="M46.0834 70.7708H26.3334V90.5208H46.0834V70.7708ZM21.3959 65.8333V95.4583H51.0209V65.8333H21.3959Z" fill="white"/>
<path fill-rule="evenodd" clip-rule="evenodd" d="M109.351 75.3449C99.9603 65.9544 84.7354 65.9544 75.3449 75.3449C65.9544 84.7353 65.9544 99.9603 75.3449 109.351L99.2067 133.213L95.7154 136.704L71.8536 112.842C60.5349 101.523 60.5349 83.1721 71.8536 71.8535C83.1722 60.5348 101.523 60.5348 112.842 71.8535L136.704 95.7153L133.213 99.2066L109.351 75.3449Z" fill="white"/>
<path fill-rule="evenodd" clip-rule="evenodd" d="M109.111 91.903L101.47 84.2614C96.6493 79.4409 88.8337 79.4409 84.0131 84.2614C79.1926 89.0818 79.1926 96.8976 84.0131 101.718L91.6547 109.36C92.1863 109.001 92.7608 108.608 93.3616 108.188C96.2176 106.193 99.408 103.78 101.47 101.718C103.532 99.6563 105.945 96.4657 107.94 93.6099C108.36 93.009 108.753 92.4344 109.111 91.903ZM90.9958 115.683C90.9958 115.683 100.189 109.981 104.961 105.209C109.733 100.437 115.435 91.244 115.435 91.244L104.961 80.7701C98.2125 74.0213 87.2705 74.0213 80.5218 80.7701C73.773 87.5188 73.773 98.4606 80.5218 105.209L90.9958 115.683Z" fill="white"/>
</svg>
