<svg width="64" height="64" viewBox="0 0 64 64" fill="none" xmlns="http://www.w3.org/2000/svg">
<path fill-rule="evenodd" clip-rule="evenodd" d="M12.6321 26.7663L12.9264 25.8106C15.5681 17.2326 23.5574 11 32.9997 11C44.5977 11 53.9997 20.402 53.9997 32V33H55.9997V32C55.9997 19.2975 45.7023 9 32.9997 9C22.655 9 13.9078 15.8287 11.015 25.222L10.7207 26.1777L12.6321 26.7663Z" fill="white"/>
<path fill-rule="evenodd" clip-rule="evenodd" d="M12.6321 26.7663L12.9264 25.8106C15.5681 17.2326 23.5574 11 32.9997 11C44.5977 11 53.9997 20.402 53.9997 32V33H55.9997V32C55.9997 19.2975 45.7023 9 32.9997 9C22.655 9 13.9078 15.8287 11.015 25.222L10.7207 26.1777L12.6321 26.7663Z" fill="url(#paint0_linear_2608_57789)"/>
<path fill-rule="evenodd" clip-rule="evenodd" d="M10 13V27H24V25H12V13H10Z" fill="white"/>
<path fill-rule="evenodd" clip-rule="evenodd" d="M10 13V27H24V25H12V13H10Z" fill="url(#paint1_linear_2608_57789)"/>
<path fill-rule="evenodd" clip-rule="evenodd" d="M32.9997 55C43.3444 55 52.0916 48.1713 54.9844 38.778L53.073 38.1894C50.4313 46.7674 42.442 53 32.9997 53C21.4017 53 11.9997 43.598 11.9997 32H9.99966C9.99966 44.7025 20.2971 55 32.9997 55Z" fill="white"/>
<path fill-rule="evenodd" clip-rule="evenodd" d="M56 50V37H43V39H54V50H56Z" fill="white"/>
<defs>
<linearGradient id="paint0_linear_2608_57789" x1="10.7207" y1="21" x2="55.9997" y2="21" gradientUnits="userSpaceOnUse">
<stop stop-color="white"/>
<stop offset="1" stop-color="white" stop-opacity="0"/>
</linearGradient>
<linearGradient id="paint1_linear_2608_57789" x1="17" y1="13" x2="17" y2="27" gradientUnits="userSpaceOnUse">
<stop stop-color="white"/>
<stop offset="1" stop-color="white" stop-opacity="0"/>
</linearGradient>
</defs>
</svg>
