<svg width="54" height="54" viewBox="0 0 54 54" fill="none" xmlns="http://www.w3.org/2000/svg">
<path fill-rule="evenodd" clip-rule="evenodd" d="M6.1875 18.5625H43.875V40.5H6.1875V18.5625ZM7.875 20.25V38.8125H42.1875V20.25H7.875Z" fill="#2D2E2F"/>
<path fill-rule="evenodd" clip-rule="evenodd" d="M24.4688 31.2188C25.4008 31.2188 26.1562 30.4633 26.1562 29.5312C26.1562 28.5992 25.4008 27.8438 24.4688 27.8438C23.5367 27.8438 22.7812 28.5992 22.7812 29.5312C22.7812 30.4633 23.5367 31.2188 24.4688 31.2188ZM24.4688 32.9062C26.3327 32.9062 27.8438 31.3952 27.8438 29.5312C27.8438 27.6673 26.3327 26.1562 24.4688 26.1562C22.6048 26.1562 21.0938 27.6673 21.0938 29.5312C21.0938 31.3952 22.6048 32.9062 24.4688 32.9062Z" fill="#FA4616"/>
<path fill-rule="evenodd" clip-rule="evenodd" d="M46.6875 15.75H11.25V14.0625H48.375V35.4375H46.6875V15.75Z" fill="#2D2E2F"/>
<path fill-rule="evenodd" clip-rule="evenodd" d="M13.5341 22.5H36.5284V23.3438C36.5284 24.8597 37.7057 26.0357 39.0938 26.0357H39.9375V33.0268H39.0938C37.7057 33.0268 36.5284 34.2028 36.5284 35.7188V36.5625H13.5341V35.7188C13.5341 34.2028 12.3568 33.0268 10.9688 33.0268H10.125V26.0357H10.9688C12.3568 26.0357 13.5341 24.8597 13.5341 23.3438V22.5ZM15.1423 24.1875C14.8149 25.9075 13.5059 27.2882 11.8125 27.6375V31.425C13.5059 31.7743 14.8149 33.155 15.1423 34.875H34.9202C35.2476 33.155 36.5567 31.7743 38.25 31.425V27.6375C36.5567 27.2882 35.2476 25.9075 34.9202 24.1875H15.1423Z" fill="#2D2E2F"/>
<path d="M32.9062 29.1094C32.9062 28.4104 33.4729 27.8438 34.1719 27.8438C34.8708 27.8438 35.4375 28.4104 35.4375 29.1094C35.4375 29.8083 34.8708 30.375 34.1719 30.375C33.4729 30.375 32.9062 29.8083 32.9062 29.1094Z" fill="#2D2E2F"/>
<path d="M14.3438 29.1094C14.3438 28.4104 14.9104 27.8438 15.6094 27.8438C16.3083 27.8438 16.875 28.4104 16.875 29.1094C16.875 29.8083 16.3083 30.375 15.6094 30.375C14.9104 30.375 14.3438 29.8083 14.3438 29.1094Z" fill="#2D2E2F"/>
</svg>
