<svg width="54" height="54" viewBox="0 0 54 54" fill="none" xmlns="http://www.w3.org/2000/svg">
<path fill-rule="evenodd" clip-rule="evenodd" d="M46.406 7.59375V8.4375H45.5623V7.59375H46.406ZM37.7019 27.5237C37.7379 27.4765 37.7803 27.4211 37.8288 27.3583C38.0098 27.1242 38.2767 26.786 38.6168 26.3742C39.2976 25.5499 40.2684 24.4348 41.4283 23.2715C43.9729 20.719 45.1971 16.9573 45.7983 13.9418C46.1022 12.4179 46.2538 11.0483 46.3297 10.0594C46.3676 9.56424 46.3867 9.16301 46.3963 8.88362C46.4011 8.74389 46.4036 8.63454 46.4048 8.55906C46.4054 8.52131 46.4057 8.49201 46.4059 8.47159L46.406 8.44774V8.44087V8.43874V8.4375C46.406 8.43722 46.406 8.4375 45.5623 8.4375C45.5623 7.59375 45.5626 7.59375 45.5623 7.59375H45.5589H45.5521L45.5283 7.59392C45.5079 7.59409 45.4787 7.59443 45.441 7.59504C45.3657 7.59628 45.2566 7.5987 45.1172 7.60354C44.8386 7.61316 44.4385 7.63234 43.9448 7.67042C42.9586 7.74653 41.593 7.89862 40.0733 8.2035C37.0662 8.80678 33.315 10.0351 30.77 12.5879C29.6102 13.7512 28.4986 14.725 27.6768 15.4079C27.2663 15.749 26.9291 16.0167 26.6957 16.1983C26.6336 16.2466 26.5788 16.2888 26.532 16.3246L14.3431 17.1142L6.71582 28.2368L19.2785 26.9918L19.1121 25.3125L10.1588 26.1998L15.2708 18.7451L27.1403 17.9763L27.3394 17.8296L26.8389 17.1503C27.3394 17.8296 27.3393 17.8296 27.3394 17.8296L27.342 17.8276L27.3477 17.8234L27.3683 17.8081C27.3862 17.7948 27.412 17.7754 27.4454 17.7502C27.512 17.6998 27.6088 17.6259 27.7318 17.5302C27.9779 17.3388 28.3293 17.0597 28.7553 16.7058C29.6064 15.9986 30.759 14.989 31.965 13.7793C34.1516 11.586 37.4978 10.4413 40.4052 9.85804C41.8428 9.56964 43.1387 9.42514 44.0747 9.35291C44.3016 9.33542 44.5071 9.32214 44.6879 9.31213C44.6779 9.49427 44.6647 9.70138 44.6471 9.93032C44.5751 10.8694 44.431 12.1695 44.1434 13.6119C43.5618 16.529 42.4201 19.8865 40.2332 22.0801C39.0272 23.2897 38.0207 24.446 37.3157 25.2996C36.9629 25.7269 36.6846 26.0794 36.4938 26.3262C36.3984 26.4496 36.3248 26.5467 36.2745 26.6136C36.2494 26.647 36.2301 26.6728 36.2168 26.6907L36.2015 26.7114L36.1973 26.7172L36.1957 26.7194C36.1956 26.7195 36.1954 26.7198 36.8761 27.2183L36.1957 26.7194L36.0499 26.9184L35.282 38.846L27.6896 44.5577L28.7504 34.9818L27.0731 34.796L25.5822 48.2548L36.9162 39.7282L37.7019 27.5237Z" fill="#2D2E2F"/>
<path fill-rule="evenodd" clip-rule="evenodd" d="M14.5908 38.2161L23.0283 29.7786L24.2216 30.9718L15.7841 39.4093L14.5908 38.2161Z" fill="#FA4616"/>
<path fill-rule="evenodd" clip-rule="evenodd" d="M12.9033 33.1536L16.2783 29.7786L17.4716 30.9718L14.0966 34.3468L12.9033 33.1536Z" fill="#FA4616"/>
<path fill-rule="evenodd" clip-rule="evenodd" d="M19.6533 39.9036L23.0283 36.5286L24.2216 37.7218L20.8466 41.0968L19.6533 39.9036Z" fill="#FA4616"/>
<path fill-rule="evenodd" clip-rule="evenodd" d="M34.5938 17.7188C33.6617 17.7188 32.9062 18.4742 32.9062 19.4062C32.9062 20.3383 33.6617 21.0938 34.5938 21.0938C35.5258 21.0938 36.2812 20.3383 36.2812 19.4062C36.2812 18.4742 35.5258 17.7188 34.5938 17.7188ZM31.2188 19.4062C31.2188 17.5423 32.7298 16.0312 34.5938 16.0312C36.4577 16.0312 37.9688 17.5423 37.9688 19.4062C37.9688 21.2702 36.4577 22.7812 34.5938 22.7812C32.7298 22.7812 31.2188 21.2702 31.2188 19.4062Z" fill="#2D2E2F"/>
</svg>
