<svg width="54" height="54" viewBox="0 0 54 54" fill="none" xmlns="http://www.w3.org/2000/svg">
<path fill-rule="evenodd" clip-rule="evenodd" d="M10.6875 47.25V30.9375H9V48.9375H20.25V47.25H10.6875ZM42.75 47.25V30.9375H44.4375V48.9375H33.75V47.25H42.75Z" fill="#2D2E2F"/>
<path fill-rule="evenodd" clip-rule="evenodd" d="M15.8915 10.3337C17.2153 9.89694 18.7105 10.1399 20.1187 11.1095C20.6527 11.4773 21.3936 12.1633 22.1673 12.9326C22.9562 13.7171 23.8272 14.6371 24.635 15.5117C25.4438 16.3871 26.1936 17.2218 26.741 17.8373C26.8332 17.941 26.9196 18.0384 26.9997 18.1288C27.0798 18.0384 27.1662 17.941 27.2583 17.8373C27.8058 17.2218 28.5556 16.3871 29.3643 15.5117C30.1722 14.6371 31.0432 13.7171 31.8321 12.9326C32.6057 12.1633 33.3466 11.4773 33.8807 11.1095C35.2888 10.1399 36.7841 9.89694 38.1079 10.3337C39.4182 10.766 40.4319 11.8219 40.9805 13.1981C42.0314 15.8345 40.7256 18.7331 38.1856 20.1031L37.3846 18.6178C39.2955 17.5872 40.0966 15.5379 39.413 13.8229C39.0165 12.8284 38.3381 12.1866 37.5792 11.9363C36.8338 11.6904 35.8828 11.7797 34.8377 12.4994C34.4447 12.77 33.8021 13.3535 33.0219 14.1292C32.2571 14.8898 31.4041 15.7904 30.6039 16.6567C29.8045 17.5221 29.0621 18.3484 28.5193 18.9588C28.2481 19.2638 28.0269 19.5146 27.8737 19.6889C27.7971 19.7761 27.7375 19.8441 27.6972 19.8903L27.6363 19.96L26.9997 19.4063L26.3632 19.9602L26.3022 19.8903C26.2618 19.8441 26.2023 19.7761 26.1256 19.6889C25.9725 19.5146 25.7513 19.2638 25.48 18.9588C24.9372 18.3484 24.1949 17.5221 23.3955 16.6567C22.5952 15.7904 21.7422 14.8898 20.9774 14.1292C20.1973 13.3535 19.5547 12.77 19.1616 12.4994C18.1166 11.7797 17.1655 11.6904 16.4202 11.9363C15.6613 12.1866 14.9828 12.8284 14.5864 13.8229C13.9028 15.5379 14.7038 17.5872 16.6147 18.6178L15.8137 20.1031C13.2738 18.7331 11.9679 15.8345 13.0188 13.1981C13.5674 11.8219 14.5811 10.766 15.8915 10.3337ZM26.9997 19.4063L26.3632 19.9602L26.9997 20.6914L27.6363 19.96L26.9997 19.4063Z" fill="#FA4616"/>
<path fill-rule="evenodd" clip-rule="evenodd" d="M6.75 18.5625H20.25V20.25H8.4375V27H20.25V28.6875H6.75V18.5625ZM45.5625 20.25H33.75V18.5625H47.25V28.6875H33.75V27H45.5625V20.25Z" fill="#2D2E2F"/>
<path fill-rule="evenodd" clip-rule="evenodd" d="M29.7258 12.3416C30.1554 11.3612 30.375 10.5104 30.375 9.84375C30.375 8.22471 28.9562 6.75 27 6.75C25.0438 6.75 23.625 8.22471 23.625 9.84375C23.625 10.5104 23.8446 11.3612 24.2742 12.3416C24.6957 13.3036 25.2719 14.2845 25.8715 15.1811C26.2603 15.7624 26.6504 16.2958 27 16.751C27.3496 16.2958 27.7397 15.7624 28.1285 15.1811C28.7281 14.2845 29.3043 13.3036 29.7258 12.3416ZM28.093 18.0944C29.5814 16.2036 32.0625 12.6331 32.0625 9.84375C32.0625 7.20315 29.796 5.0625 27 5.0625C24.204 5.0625 21.9375 7.20315 21.9375 9.84375C21.9375 12.6331 24.4186 16.2036 25.907 18.0944C26.5446 18.9044 27 19.4062 27 19.4062C27 19.4062 27.4554 18.9044 28.093 18.0944Z" fill="#FA4616"/>
<path fill-rule="evenodd" clip-rule="evenodd" d="M23.625 20.25V48.9375H21.9375V20.25H23.625ZM30.375 48.9375V20.25H32.0625V48.9375H30.375Z" fill="#FA4616"/>
</svg>
