<svg width="64" height="64" viewBox="0 0 64 64" fill="none" xmlns="http://www.w3.org/2000/svg">
<path fill-rule="evenodd" clip-rule="evenodd" d="M18 19C13.0294 19 9 23.0294 9 28V45H55V28C55 23.0294 50.9706 19 46 19H44V17H46C52.0751 17 57 21.9249 57 28V47H7V28C7 21.9249 11.9249 17 18 17H38V19H18Z" fill="white"/>
<path fill-rule="evenodd" clip-rule="evenodd" d="M18 19C13.0294 19 9 23.0294 9 28V45H55V28C55 23.0294 50.9706 19 46 19H44V17H46C52.0751 17 57 21.9249 57 28V47H7V28C7 21.9249 11.9249 17 18 17H38V19H18Z" fill="url(#paint0_linear_2608_58460)"/>
<path fill-rule="evenodd" clip-rule="evenodd" d="M7 28C7 21.9249 11.9249 17 18 17C24.0751 17 29 21.9249 29 28V47H7V28ZM18 19C13.0294 19 9 23.0294 9 28V45H27V28C27 23.0294 22.9706 19 18 19Z" fill="white"/>
<path fill-rule="evenodd" clip-rule="evenodd" d="M7 28C7 21.9249 11.9249 17 18 17C24.0751 17 29 21.9249 29 28V47H7V28ZM18 19C13.0294 19 9 23.0294 9 28V45H27V28C27 23.0294 22.9706 19 18 19Z" fill="url(#paint1_linear_2608_58460)"/>
<path fill-rule="evenodd" clip-rule="evenodd" d="M27 56V49H29V56H27Z" fill="white"/>
<path fill-rule="evenodd" clip-rule="evenodd" d="M27 56V49H29V56H27Z" fill="url(#paint2_linear_2608_58460)"/>
<path fill-rule="evenodd" clip-rule="evenodd" d="M35 56V49H37V56H35Z" fill="white"/>
<path fill-rule="evenodd" clip-rule="evenodd" d="M35 56V49H37V56H35Z" fill="url(#paint3_linear_2608_58460)"/>
<path fill-rule="evenodd" clip-rule="evenodd" d="M40 7H53.118L49.618 14H42V31H40V7ZM42 12H48.382L49.882 9H42V12Z" fill="white"/>
<defs>
<linearGradient id="paint0_linear_2608_58460" x1="32" y1="17" x2="32" y2="47" gradientUnits="userSpaceOnUse">
<stop stop-color="white"/>
<stop offset="1" stop-color="white" stop-opacity="0"/>
</linearGradient>
<linearGradient id="paint1_linear_2608_58460" x1="18" y1="17" x2="18" y2="47" gradientUnits="userSpaceOnUse">
<stop stop-color="white"/>
<stop offset="1" stop-color="white" stop-opacity="0"/>
</linearGradient>
<linearGradient id="paint2_linear_2608_58460" x1="28" y1="49" x2="28" y2="56" gradientUnits="userSpaceOnUse">
<stop stop-color="white"/>
<stop offset="1" stop-color="white" stop-opacity="0"/>
</linearGradient>
<linearGradient id="paint3_linear_2608_58460" x1="36" y1="49" x2="36" y2="56" gradientUnits="userSpaceOnUse">
<stop stop-color="white"/>
<stop offset="1" stop-color="white" stop-opacity="0"/>
</linearGradient>
</defs>
</svg>
