<svg width="64" height="64" viewBox="0 0 64 64" fill="none" xmlns="http://www.w3.org/2000/svg">
<path fill-rule="evenodd" clip-rule="evenodd" d="M32 33C37.5228 33 42 28.5228 42 23C42 17.4772 37.5228 13 32 13C26.4772 13 22 17.4772 22 23C22 28.5228 26.4772 33 32 33ZM32 35C38.6274 35 44 29.6274 44 23C44 16.3726 38.6274 11 32 11C25.3726 11 20 16.3726 20 23C20 29.6274 25.3726 35 32 35Z" fill="#FA4616"/>
<path fill-rule="evenodd" clip-rule="evenodd" d="M32.0002 42C23.8447 42 16.7037 46.6047 12.874 53.4863L12.3877 54.3601L10.6401 53.3875L11.1264 52.5137C15.2811 45.048 23.0634 40 32.0002 40C40.937 40 48.7193 45.048 52.874 52.5137L53.3603 53.3875L51.6127 54.3601L51.1264 53.4863C47.2968 46.6047 40.1557 42 32.0002 42Z" fill="#2D2E2F"/>
</svg>
